<?xml version="1.0" standalone="no"?>
<!DOCTYPE svg PUBLIC "-//W3C//DTD SVG 20010904//EN"
 "http://www.w3.org/TR/2001/REC-SVG-20010904/DTD/svg10.dtd">
<svg version="1.0" xmlns="http://www.w3.org/2000/svg"
 width="256.000000pt" height="256.000000pt" viewBox="0 0 256.000000 256.000000"
 preserveAspectRatio="xMidYMid meet">
<metadata>
Created by potrace 1.14, written by Peter Selinger 2001-2017
</metadata>
<g transform="translate(0.000000,256.000000) scale(0.100000,-0.100000)"
fill="#000000" stroke="none">
<path d="M1607 2164 c-1 -1 -45 -4 -97 -8 -52 -3 -124 -11 -160 -16 -36 -5
-69 -10 -73 -10 -4 0 -17 -21 -28 -47 -162 -374 -659 -1547 -656 -1549 2 -2
20 -6 40 -8 l36 -5 124 292 c69 161 215 506 327 767 111 261 205 478 208 482
22 22 327 30 434 12 140 -25 242 -89 269 -171 31 -96 -20 -245 -116 -339 -57
-56 -128 -96 -270 -154 -44 -19 -83 -38 -86 -43 -7 -11 0 -45 11 -52 11 -7
250 98 310 137 75 48 153 130 190 200 32 59 60 166 55 209 -20 181 -182 291
-444 302 -40 1 -73 2 -74 1z"/>
</g>
</svg>
